<svg width="123" height="36" viewBox="0 0 123 36" fill="none" xmlns="http://www.w3.org/2000/svg">
<g opacity="0.9">
<path fill-rule="evenodd" clip-rule="evenodd" d="M2 0C0.89543 0 0 0.895431 0 2V34C0 35.1046 0.895429 36 2 36H121C122.105 36 123 35.1046 123 34V2C123 0.895431 122.105 0 121 0H2ZM5.03027 28.935V7.79726H13.6289C17.9648 7.79726 20.9531 10.683 20.9531 15.0336C20.9531 19.3695 17.8623 22.2699 13.4092 22.2699H9.4541V28.935H5.03027ZM12.457 11.2982H9.4541V18.8129H12.4424C14.9766 18.8129 16.4561 17.4652 16.4561 15.0482C16.4561 12.6459 14.9912 11.2982 12.457 11.2982ZM37.667 21.0687C37.667 26.2396 34.6348 29.2719 29.8887 29.2719C25.1426 29.2719 22.1104 26.225 22.1104 21.0687C22.1104 15.9857 25.1865 12.8949 29.8887 12.8949C34.5908 12.8949 37.667 15.9711 37.667 21.0687ZM26.4463 21.0834C26.4463 24.2328 27.7793 26.0053 29.8887 26.0053C31.9834 26.0053 33.3164 24.2328 33.3164 21.0834C33.3164 17.9633 31.9688 16.1615 29.8887 16.1615C27.8086 16.1615 26.4463 17.9633 26.4463 21.0834ZM44.1562 28.935H39.8789V13.2318H44.0098V16.059H44.0977C44.6543 14.0668 45.9873 12.9828 47.833 12.9828C48.3311 12.9828 48.7559 13.0561 49.0488 13.1439V16.9086C48.6973 16.7621 48.1113 16.6596 47.4961 16.6596C45.3867 16.6596 44.1562 17.9486 44.1562 20.1605V28.935ZM52.4766 13.2318V9.61367H56.7539V13.2318H59.6543V16.4545H56.7539V23.9691C56.7539 25.1703 57.3398 25.7416 58.5996 25.7416C58.9805 25.7416 59.376 25.7123 59.6396 25.6684V28.8178C59.2002 28.9203 58.4678 28.9936 57.6035 28.9936C53.9121 28.9936 52.4766 27.7631 52.4766 24.7016V16.4545H50.2646V13.2318H52.4766ZM67.418 28.935H63.1406V16.4545H61.002V13.3051H63.1406V12.1186C63.1406 9.04238 64.5908 7.60683 68.3115 7.60683C69.1025 7.60683 69.9961 7.69473 70.4941 7.79726V10.6244C70.1865 10.5658 69.7617 10.5365 69.3369 10.5365C67.9307 10.5365 67.3154 11.1518 67.3154 12.265V13.3051H70.4355V16.4545H67.418V28.935ZM87.2373 21.0687C87.2373 26.2396 84.2051 29.2719 79.459 29.2719C74.7129 29.2719 71.6807 26.225 71.6807 21.0687C71.6807 15.9857 74.7568 12.8949 79.459 12.8949C84.1611 12.8949 87.2373 15.9711 87.2373 21.0687ZM76.0166 21.0834C76.0166 24.2328 77.3496 26.0053 79.459 26.0053C81.5537 26.0053 82.8867 24.2328 82.8867 21.0834C82.8867 17.9633 81.5391 16.1615 79.459 16.1615C77.3789 16.1615 76.0166 17.9633 76.0166 21.0834ZM93.8291 28.935H89.5518V7.79726H93.8291V28.935ZM101.139 8.91055C101.139 10.1117 100.157 11.1078 98.9121 11.1078C97.667 11.1078 96.6855 10.1117 96.6855 8.91055C96.6855 7.69473 97.667 6.71328 98.9121 6.71328C100.157 6.71328 101.139 7.69473 101.139 8.91055ZM101.065 28.935H96.7881V13.2318H101.065V28.935ZM118.907 21.0687C118.907 26.2396 115.875 29.2719 111.129 29.2719C106.383 29.2719 103.351 26.225 103.351 21.0687C103.351 15.9857 106.427 12.8949 111.129 12.8949C115.831 12.8949 118.907 15.9711 118.907 21.0687ZM107.687 21.0834C107.687 24.2328 109.02 26.0053 111.129 26.0053C113.224 26.0053 114.557 24.2328 114.557 21.0834C114.557 17.9633 113.209 16.1615 111.129 16.1615C109.049 16.1615 107.687 17.9633 107.687 21.0834Z" fill="white"/>
</g>
</svg>
