<svg width="39" height="36" viewBox="0 0 39 36" fill="none" xmlns="http://www.w3.org/2000/svg">
<g opacity="0.9">
<path fill-rule="evenodd" clip-rule="evenodd" d="M19.499 0C8.7305 0 0 8.26347 0 18.4568C0 26.6109 5.586 33.5285 13.3355 35.9675C14.3115 36.1384 14.6665 35.57 14.6665 35.0793C14.6665 34.642 14.6495 33.4822 14.641 31.9404C9.2165 33.0567 8.072 29.4659 8.072 29.4659C7.185 27.334 5.9065 26.7671 5.9065 26.7671C4.136 25.6228 6.041 25.6451 6.041 25.6451C7.998 25.7761 9.028 27.5465 9.028 27.5465C10.767 30.3669 13.5925 29.5506 14.703 29.0812C14.8795 27.8863 15.3845 27.0747 15.941 26.6123C11.6115 26.1467 7.0595 24.5633 7.0595 17.4914C7.0595 15.4759 7.819 13.8281 9.066 12.5376C8.8665 12.0729 8.196 10.1966 9.2575 7.65443C9.2575 7.65443 10.8945 7.15849 14.6205 9.54781C16.175 9.13657 17.8435 8.93119 19.502 8.92504C21.158 8.93167 22.827 9.13657 24.3835 9.54781C28.107 7.15849 29.7415 7.65443 29.7415 7.65443C30.8055 10.1966 30.1355 12.0729 29.9355 12.5376C31.1855 13.8281 31.9395 15.4759 31.9395 17.4914C31.9395 24.5798 27.381 26.1415 23.037 26.5967C23.736 27.167 24.36 28.2956 24.36 30.0177C24.36 32.4836 24.3365 34.4736 24.3365 35.0788C24.3365 35.5733 24.687 36.1483 25.677 35.9652C33.418 33.521 39 26.6085 39 18.4568C39 8.26347 30.2695 0 19.499 0V0Z" fill="white"/>
</g>
</svg>
