<svg width="36" height="36" viewBox="0 0 36 36" fill="none" xmlns="http://www.w3.org/2000/svg">
<g opacity="0.9">
<path d="M33.3335 0H2.6575C1.1905 0 0 1.1625 0 2.594V33.4025C0 34.836 1.1905 36 2.6575 36H33.3335C34.8015 36 36 34.836 36 33.4025V2.594C36 1.1625 34.8015 0 33.3335 0ZM10.677 30.677H5.335V13.4975H10.677V30.677ZM8.006 11.1485C7.59939 11.1485 7.19677 11.0684 6.82113 10.9127C6.4455 10.7571 6.10422 10.5289 5.8168 10.2413C5.52937 9.95368 5.30144 9.61225 5.14602 9.23652C4.9906 8.86079 4.91074 8.45811 4.911 8.0515C4.911 7.23072 5.23705 6.44356 5.81743 5.86318C6.39781 5.2828 7.18497 4.95675 8.00575 4.95675C8.82653 4.95675 9.61369 5.2828 10.1941 5.86318C10.7744 6.44356 11.1005 7.23072 11.1005 8.0515C11.1005 8.87244 10.7746 9.6598 10.1943 10.2405C9.61403 10.8213 8.82694 11.1478 8.006 11.1485V11.1485ZM30.675 30.677H25.3415V22.323C25.3415 20.33 25.3025 17.7675 22.566 17.7675C19.787 17.7675 19.3635 19.938 19.3635 22.1785V30.6775H14.026V13.4975H19.1485V15.8435H19.2215C19.9345 14.4935 21.6765 13.069 24.2745 13.069C29.6775 13.069 30.6755 16.626 30.6755 21.2535V30.677H30.675Z" fill="white"/>
</g>
</svg>
